<svg width="40" height="48" viewBox="0 0 40 48" fill="none" xmlns="http://www.w3.org/2000/svg">
<path d="M28.7807 0.171812C28.6778 0.199888 28.135 0.36835 27.5641 0.54617C25.6081 1.17322 24.0264 2.08104 22.8752 3.23219C21.069 5.04783 19.9085 7.84616 19.6932 10.8785L19.6277 11.7769L20.5636 11.6553C22.9314 11.3464 24.0638 10.8317 25.5706 9.34359C27.2927 7.65898 28.369 5.83398 28.9118 3.69078C29.1177 2.88591 29.3142 1.30425 29.2487 0.9954C29.23 0.892451 29.1832 0.649118 29.1551 0.45258C29.127 0.265401 29.0709 0.115658 29.0334 0.115658C28.996 0.125017 28.8837 0.143735 28.7807 0.171812Z" fill="white"/>
<path d="M28.2192 11.0282C28.1163 11.0469 27.6764 11.1311 27.2365 11.2154C26.7967 11.2902 25.5613 11.6365 24.4756 11.9641C20.7414 13.1059 20.7321 13.1059 16.9042 12.1326C13.4601 11.2622 12.1218 11.075 10.484 11.2341C9.89438 11.2902 9.05208 11.4306 8.6122 11.5523C4.46619 12.7034 1.21863 16.8963 0.292093 22.287C-0.138419 24.7952 -0.0916243 27.9211 0.423118 30.6165C1.62106 36.887 5.72965 44.3274 9.389 46.8262C10.6431 47.6779 11.9534 48.0803 13.1981 47.9867C14.1059 47.9212 15.0044 47.6779 16.5673 47.0883C19.871 45.8342 21.4059 45.8154 25.0372 46.9947C26.937 47.6124 28.3128 47.9306 29.0334 47.9306C30.2033 47.9212 31.5042 47.4626 32.646 46.6484C35.1355 44.8702 38.1959 40.303 39.7495 36.054C39.9179 35.5674 40.0302 35.1369 39.9928 35.0994C39.9554 35.062 39.6839 34.9403 39.4032 34.828C36.8107 33.8079 34.3213 30.42 33.741 27.0975C33.5725 26.1242 33.5445 24.1307 33.6942 23.2884C34.1247 20.8738 35.0793 19.1986 37.2787 17.0179L38.6732 15.6328L38.1865 15.0806C35.7625 12.2823 32.9361 10.944 29.5388 10.972C28.9211 10.9814 28.3222 11.0001 28.2192 11.0282Z" fill="white"/>
</svg>
