<svg width="30" height="35" viewBox="0 0 30 35" fill="none" xmlns="http://www.w3.org/2000/svg">
<path d="M0.629558 0.127138C0.180284 0.44289 -0.0745279 1.28127 0.0193503 2.09787C0.0797005 2.6096 0.41498 3.20844 0.716731 3.34999C0.891076 3.43709 5.33688 3.45887 15.1606 3.43709L29.3563 3.40443L29.5373 3.17578C29.8927 2.75115 30 2.40273 30 1.71679C30 1.03084 29.8927 0.682426 29.5373 0.257794L29.3563 0.0291456L15.0935 0.00736961C3.33861 -0.0144064 0.797198 0.00736961 0.629558 0.127138Z" fill="white"/>
<path d="M0.629558 15.806C0.180284 16.1217 -0.0745279 16.9601 0.0193503 17.7767C0.0797005 18.2884 0.41498 18.8873 0.716731 19.0288C0.891076 19.1159 4.69314 19.1377 13.0148 19.1159L25.0647 19.0833L25.2457 18.8546C25.6011 18.43 25.7084 18.0816 25.7084 17.3956C25.7084 16.7097 25.6011 16.3613 25.2457 15.9366L25.0647 15.708L12.9477 15.6862C2.97651 15.6644 0.797198 15.6862 0.629558 15.806Z" fill="white"/>
<path d="M0.629558 31.4847C0.180284 31.8004 -0.0745279 32.6388 0.0193503 33.4554C0.0797005 33.9671 0.41498 34.566 0.716731 34.7075C0.88437 34.7946 3.24473 34.8164 8.18675 34.7946C15.355 34.762 15.4087 34.762 15.5897 34.5333C15.9451 34.1087 16.0524 33.7603 16.0524 33.0743C16.0524 32.3884 15.9451 32.04 15.5897 31.6153C15.4087 31.3867 15.3617 31.3867 8.11969 31.3649C2.16514 31.3431 0.790492 31.3649 0.629558 31.4847Z" fill="white"/>
</svg>
