<svg width="40" height="27" viewBox="0 0 40 27" fill="none" xmlns="http://www.w3.org/2000/svg">
<path d="M31.3281 3.40625V5.90625H35.6641H40V3.40625V0.90625H35.6641H31.3281V3.40625Z" fill="white"/>
<path d="M10.4688 10.4375V12.9375H14.7656H19.0625V10.4375V7.9375H14.7656H10.4688V10.4375Z" fill="white"/>
<path d="M31.3281 10.4375V12.9375H35.6641H40V10.4375V7.9375H35.6641H31.3281V10.4375Z" fill="white"/>
<path d="M10.4688 17.4688V19.9688H14.7656H19.0625V17.4688V14.9688H14.7656H10.4688V17.4688Z" fill="white"/>
<path d="M20.9375 17.4688V19.9688H25.2344H29.5312V17.4688V14.9688H25.2344H20.9375V17.4688Z" fill="white"/>
<path d="M31.3281 17.4688V19.9688H35.6641H40V17.4688V14.9688H35.6641H31.3281V17.4688Z" fill="white"/>
<path d="M0 24.5V27H4.33594H8.67188V24.5V22H4.33594H0V24.5Z" fill="white"/>
<path d="M10.4688 24.5V27H14.7656H19.0625V24.5V22H14.7656H10.4688V24.5Z" fill="white"/>
<path d="M20.9375 24.5V27H25.2344H29.5312V24.5V22H25.2344H20.9375V24.5Z" fill="white"/>
<path d="M31.3281 24.5V27H35.6641H40V24.5V22H35.6641H31.3281V24.5Z" fill="white"/>
</svg>
