<svg width="40" height="39" viewBox="0 0 40 39" fill="none" xmlns="http://www.w3.org/2000/svg">
<path d="M18.5477 0.106014C16.7819 0.462928 15.6455 1.12979 13.9454 2.83922C12.4051 4.3702 0.260586 17.9423 0.119699 18.2804C-0.0963278 18.797 -0.0117956 19.6893 0.307549 20.1308C0.69264 20.6849 1.14348 20.9479 1.78217 20.9949C2.53356 21.0512 2.95623 20.8822 3.4916 20.328L3.94244 19.8584V24.5922C3.94244 31.5144 4.08332 33.1393 4.79715 34.5576C5.93364 36.8212 7.84031 38.3146 10.2354 38.8312C10.9774 38.9909 11.6724 39.0002 20.0036 39.0002C28.3253 39.0002 29.0297 38.9909 29.7717 38.8312C31.3027 38.5024 32.2983 37.9765 33.4536 36.8963C34.2989 36.1074 34.8155 35.3935 35.2663 34.4073C35.9426 32.9327 36.0647 31.4581 36.0647 24.5922V19.849L36.4968 20.2998C37.0039 20.8352 37.3984 21.0137 38.0653 21.0137C38.7134 21.0137 39.2769 20.7225 39.662 20.1871C39.8968 19.8678 39.9626 19.6705 39.9908 19.2009C40.0189 18.8158 39.9814 18.4965 39.8968 18.2898C39.8217 18.1114 38.9294 17.0406 37.915 15.9042L36.0647 13.8566V9.39517C36.0647 6.29565 36.0271 4.81164 35.952 4.50169C35.8017 3.90057 35.1442 3.2431 34.5337 3.08343C33.6602 2.8674 32.7773 3.23371 32.3359 3.9945L32.0729 4.43594L32.0259 6.86859L31.979 9.31064L29.443 6.4929C24.9816 1.55245 24.202 0.885589 22.2108 0.303256C21.1588 -0.00669588 19.5527 -0.0912281 18.5477 0.106014ZM21.5345 4.32323C22.3141 4.68015 23.5257 5.91056 28.1281 11.0107L32.0259 15.3312L31.9978 23.5027C31.9602 32.1719 31.9602 32.1719 31.5187 33.0266C31.2839 33.4775 30.6734 34.1068 30.1474 34.4449C29.1988 35.0554 29.227 35.0554 20.0036 35.0554C10.7802 35.0554 10.8083 35.0554 9.85969 34.4449C9.33372 34.1068 8.72321 33.4775 8.48839 33.0266C8.04695 32.1719 8.04695 32.1719 8.00938 23.5027L7.9812 15.3312L11.8415 11.0576C15.8239 6.64317 17.3455 5.03706 17.9654 4.60501C18.6041 4.16356 19.2052 4.00389 20.1445 4.04146C20.8207 4.06024 21.1025 4.1166 21.5345 4.32323Z" fill="white"/>
</svg>
