<svg width="48" height="48" viewBox="0 0 48 48" fill="none" xmlns="http://www.w3.org/2000/svg">
<g filter="url(#filter0_d_88_69)">
<path d="M16.4922 0.042572C13.9141 0.151947 12.1484 0.480072 10.6562 1.1207C9.25781 1.72226 8.42969 2.27695 7.39844 3.30038C6.00781 4.6832 5.14062 6.23788 4.59375 8.32382C4.10938 10.1676 4 12.2848 4 19.9644C4 27.5191 4.10156 29.6598 4.55469 31.5035C5.67969 36.0894 9.03906 39.0113 13.9844 39.691C15.3984 39.8785 18.3672 39.9644 24.0391 39.9644C29.3125 39.9644 32.3516 39.8863 33.7188 39.7223C36.5156 39.3941 38.7031 38.4254 40.4297 36.7691C42.375 34.8941 43.4062 32.6519 43.7812 29.4566C43.9297 28.2066 43.9297 11.5348 43.7812 10.3551C43.4766 7.96445 42.7656 5.9957 41.6406 4.48788C41.0859 3.73788 39.8984 2.60507 39.1562 2.09726C37.4766 0.964447 35.4531 0.339447 32.7891 0.112885C31.5312 0.011322 18.625 -0.0433655 16.4922 0.042572ZM33.3906 3.81601C35.6172 4.14413 36.8672 4.69882 38.0703 5.89413C38.8516 6.67538 39.2812 7.36288 39.6641 8.42538C40.3047 10.2223 40.3672 11.1754 40.3672 20.0035C40.3672 25.0894 40.3359 27.5348 40.2656 28.3551C40.0391 31.066 39.5 32.5269 38.2344 33.8785C36.9141 35.2848 35.2656 35.9801 32.7109 36.2144C31.3281 36.3473 19.8984 36.4098 17.2656 36.3004C16.0781 36.2535 14.8359 36.1754 14.5 36.1285C13.0234 35.9254 11.5938 35.4019 10.7031 34.7535C10.1484 34.3394 9.25781 33.3707 8.92969 32.8238C8.27344 31.7301 7.88281 30.191 7.75 28.2379C7.51562 24.691 7.59375 12.5191 7.85938 10.5035C8.14062 8.41757 8.78906 7.01132 10.0156 5.82382C11.3594 4.51913 13.125 3.88632 15.8594 3.71445C16.4531 3.6832 20.4453 3.65976 24.7422 3.67538C31.4062 3.69101 32.6797 3.70663 33.3906 3.81601Z" fill="white"/>
<path d="M33.625 7.15195C32.7422 7.59726 32.3203 8.28476 32.3203 9.30038C32.3203 10.0348 32.4922 10.4723 32.9922 10.9723C33.4922 11.4644 33.9297 11.6441 34.6641 11.6441C35.1875 11.6441 35.3594 11.6129 35.7344 11.4254C36.5234 11.0348 36.9688 10.3551 37.0312 9.44882C37.0859 8.64413 36.9062 8.17538 36.3516 7.61288C35.8359 7.09726 35.3828 6.91757 34.625 6.91757C34.2031 6.91757 34.0156 6.96445 33.625 7.15195Z" fill="white"/>
<path d="M22.1719 9.85507C20.1172 10.2301 18.2969 11.191 16.7656 12.7301C14.7344 14.7535 13.7578 17.1207 13.7578 19.9644C13.7578 21.6832 14.0781 23.0973 14.7891 24.5191C16.9766 28.8629 21.7891 31.0894 26.4688 29.9254C28.3125 29.4644 29.7344 28.6676 31.1172 27.3316C32.3594 26.1285 33.1953 24.816 33.7188 23.2457C34.0938 22.1129 34.2344 21.2379 34.2344 19.9644C34.2344 18.6988 34.0938 17.816 33.7266 16.7066C33.2266 15.2066 32.5 14.0191 31.3672 12.8473C29.8203 11.2535 27.8906 10.2223 25.7656 9.84726C24.8984 9.69882 23.0156 9.69882 22.1719 9.85507ZM25.2656 13.4332C28.8438 14.1207 31.2188 17.6363 30.5312 21.2379C30.1094 23.4176 28.5078 25.3551 26.4609 26.1441C25.4609 26.5348 24.8828 26.6285 23.7266 26.5816C22.9062 26.5504 22.5859 26.5035 22.0469 26.3316C19.6797 25.5816 17.9531 23.6676 17.4688 21.2613C17.2812 20.3316 17.3516 18.8863 17.6328 18.0113C18.3672 15.6832 20.3281 13.9098 22.6641 13.441C23.3594 13.3004 24.5625 13.3004 25.2656 13.4332Z" fill="white"/>
</g>
<defs>
<filter id="filter0_d_88_69" x="0" y="-7.62939e-06" width="47.8926" height="47.9645" filterUnits="userSpaceOnUse" color-interpolation-filters="sRGB">
<feFlood flood-opacity="0" result="BackgroundImageFix"/>
<feColorMatrix in="SourceAlpha" type="matrix" values="0 0 0 0 0 0 0 0 0 0 0 0 0 0 0 0 0 0 127 0" result="hardAlpha"/>
<feOffset dy="4"/>
<feGaussianBlur stdDeviation="2"/>
<feComposite in2="hardAlpha" operator="out"/>
<feColorMatrix type="matrix" values="0 0 0 0 0 0 0 0 0 0 0 0 0 0 0 0 0 0 0.25 0"/>
<feBlend mode="normal" in2="BackgroundImageFix" result="effect1_dropShadow_88_69"/>
<feBlend mode="normal" in="SourceGraphic" in2="effect1_dropShadow_88_69" result="shape"/>
</filter>
</defs>
</svg>
