<svg width="42" height="49" viewBox="0 0 42 49" fill="none" xmlns="http://www.w3.org/2000/svg">
<path d="M19.8125 38.6904V5.76856M10.4062 48.0966C12.9009 48.0966 15.2934 47.1056 17.0574 45.3416C18.8215 43.5776 19.8125 41.1851 19.8125 38.6904C19.8125 36.1957 18.8215 33.8032 17.0574 32.0392C15.2934 30.2752 12.9009 29.2841 10.4062 29.2841C7.91154 29.2841 5.51903 30.2752 3.75502 32.0392C1.99101 33.8032 1 36.1957 1 38.6904C1 41.1851 1.99101 43.5776 3.75502 45.3416C5.51903 47.1056 7.91154 48.0966 10.4062 48.0966V48.0966ZM26.0206 1.32412L36.4145 4.78091C38.9306 5.62747 41 8.47285 41 11.1301V13.8814C41 17.4793 38.2252 19.4781 34.8154 18.3494L24.4215 14.8926C21.9054 14.046 19.836 11.2007 19.836 8.5434V5.76856C19.8125 2.19419 22.6108 0.171852 26.0206 1.32412V1.32412Z" stroke="white" stroke-width="1.5" stroke-linecap="round" stroke-linejoin="round"/>
</svg>
