<svg width="14" height="22" viewBox="0 0 14 22" fill="none" xmlns="http://www.w3.org/2000/svg">
<path d="M2.65657 0.764519C2.28319 0.847714 1.84416 1.0973 1.54873 1.3968C1.25742 1.69214 0.994818 2.19131 0.925066 2.59065C0.86352 2.9359 0.86352 19.7662 0.925066 20.1115C0.949684 20.2446 1.03995 20.515 1.13022 20.7022C1.5036 21.4842 2.31191 21.9958 3.18176 22C3.47308 22 3.98596 21.8669 4.25677 21.7213C4.5645 21.5549 5.02815 21.0765 5.18406 20.7646C5.45076 20.2196 5.43435 20.8935 5.43435 11.3511C5.43435 1.80861 5.45076 2.48249 5.18406 1.93757C5.02815 1.62559 4.5645 1.14722 4.25677 0.980826C3.79312 0.731241 3.18586 0.648047 2.65657 0.764519Z" fill="white"/>
<path d="M10.8178 0.785689C10.6536 0.831446 10.4198 0.918801 10.3049 0.981197C10.0012 1.14343 9.5335 1.62596 9.38578 1.92962C9.10677 2.48702 9.12729 1.72163 9.12729 11.3514C9.12729 20.9812 9.10677 20.2158 9.38578 20.7732C9.5335 21.0769 10.0012 21.5594 10.3049 21.7217C11.1911 22.2 12.2949 22.0295 13.0129 21.3057C13.3042 21.0104 13.5668 20.5112 13.6366 20.1118C13.6981 19.7666 13.6981 2.93628 13.6366 2.59102C13.612 2.45791 13.5217 2.18752 13.4314 2.00033C12.9637 1.01863 11.8681 0.506987 10.8178 0.785689Z" fill="white"/>
</svg>
