<svg width="40" height="40" viewBox="0 0 40 40" fill="none" xmlns="http://www.w3.org/2000/svg">
<path d="M7.57031 0.0117006C4.32812 0.167951 3.5 0.222638 3 0.285138C1.73438 0.441388 0.78125 1.19139 0.390625 2.33201C0.125 3.11326 0 5.47264 0 9.61326C0 13.6758 0.117188 16.0195 0.375 16.8633C0.53125 17.3945 0.9375 17.9804 1.375 18.3242C1.99219 18.8164 2.46875 18.9492 3.92188 19.0508L5.20312 19.1367L5.14844 19.3789C4.89844 20.5664 4.69531 27.7695 4.85156 30.1523C4.92188 31.1445 4.9375 31.2539 5.10156 31.3789C5.32031 31.5586 5.64062 31.5664 5.84375 31.4101C5.99219 31.2929 6 31.1523 6.00781 26.7773C6.02344 21.0273 6.17188 19.1836 6.625 19.1836C6.79688 19.1836 7.25 19.3554 7.46094 19.5039C7.57812 19.5898 8.07812 20.3164 8.58594 21.1367C9.38281 22.4336 9.53906 22.6445 9.85156 22.832C10.5391 23.2304 11.375 23.1367 11.8828 22.5976C12.0156 22.4648 12.5 21.7461 12.9453 21.0195C14.0781 19.1836 13.9297 19.2695 16.1016 19.1367C17.0391 19.082 17.8594 19.0351 17.9297 19.0273C18.0391 19.0273 18.0625 19.2383 18.1094 20.6914C18.1641 22.5429 18.2812 24.3164 18.3984 25.1992C18.5391 26.3086 19.1484 27.1992 20.0625 27.6445C20.2969 27.7617 20.5312 27.8554 20.5703 27.8554C20.6328 27.8554 20.6562 28.5117 20.6562 29.9101C20.6562 32.2461 20.6719 32.3086 21.1953 32.3086C21.3984 32.3086 21.5391 32.2539 21.6406 32.1445C21.7734 31.9961 21.7891 31.8164 21.8125 29.9883L21.8359 27.9961L22.3594 28.0351C22.6484 28.0664 23.3203 28.1054 23.8594 28.1289C25.3203 28.1992 25.1875 28.0976 25.1406 29.0898C25.0547 30.9179 24.8672 33.1289 24.7812 33.4179C24.6562 33.832 24.1719 34.3711 23.7734 34.5273C23.3984 34.6758 23.1562 34.707 20.7969 34.8398C19.1484 34.9414 18.9844 34.9648 18.5938 35.1523C18 35.4414 17.5938 35.9179 16.7578 37.3086C15.9844 38.5898 15.8203 38.7929 15.5469 38.7929C15.2969 38.7929 15.1562 38.6054 14.2578 37.1367C13.3984 35.7383 13.1406 35.4414 12.4609 35.1367C12.0625 34.957 11.8672 34.9258 10.1094 34.832C9.05469 34.7695 8.01562 34.6836 7.78906 34.6445C7.17188 34.5273 6.72656 34.1836 6.44531 33.6211C6.125 32.9804 6.07031 32.9336 5.73438 32.9336C4.60938 32.9336 5.36719 34.8554 6.75781 35.5351C7.3125 35.8086 7.74219 35.8711 9.83594 35.9804C11.7188 36.082 11.9922 36.1289 12.3203 36.3867C12.4375 36.4883 12.9375 37.2148 13.4219 38.0117C14.1797 39.2539 14.3594 39.4883 14.6641 39.6836C15.2969 40.0742 16.1016 40.0273 16.625 39.5742C16.7656 39.4492 17.2578 38.7304 17.7188 37.9804C18.1797 37.2226 18.6641 36.5195 18.7891 36.4179C19.1328 36.1289 19.4297 36.0742 21.2812 35.9804C22.2031 35.9336 23.1875 35.8554 23.4531 35.8164C24.4531 35.6601 25.3672 34.9726 25.7891 34.0586C25.9922 33.6133 26.0938 32.8086 26.2578 30.3554L26.3203 29.457L26.9297 30.4492C27.2578 30.9883 27.6562 31.5429 27.8047 31.6758C28.4141 32.207 29.3359 32.1992 29.9453 31.6445C30.1094 31.4961 30.5781 30.8164 30.9922 30.1367C31.4062 29.4492 31.8203 28.8008 31.9141 28.6836C32.2422 28.2695 32.4219 28.2304 34.7188 28.082C36.0234 27.9961 37.0156 27.8945 37.25 27.8242C38.0938 27.5664 38.875 26.8086 39.1719 25.9648C39.6953 24.4726 39.7969 15.1367 39.3203 11.8867C39.1172 10.4648 38.1172 9.46482 36.7109 9.26951C34.2734 8.91795 26.4375 8.86326 22.2109 9.16014L21.5391 9.20701L21.4844 7.53514C21.3828 4.20701 21.2266 2.65233 20.9375 2.01951C20.5781 1.25389 19.7812 0.582013 18.9688 0.363263C18.3281 0.191388 15.1094 0.0351381 11.6328 0.0117006C9.70312 -0.00392438 7.875 -0.00392438 7.57031 0.0117006ZM16.3984 1.29295C18.4531 1.41795 18.8359 1.48045 19.2031 1.73826C19.7031 2.08983 19.9531 2.50389 20.0312 3.1367C20.1484 4.00389 20.2578 5.83201 20.3125 7.67576L20.3672 9.39451L20.0156 9.56639C19.1641 9.97264 18.5391 10.9179 18.3984 11.9961C18.2891 12.8164 18.1719 14.5742 18.1094 16.3476C18.0625 17.6523 18.0391 17.8554 17.9297 17.8554C17.8594 17.8554 17 17.9101 16.0234 17.9726C13.4375 18.1289 13.3125 18.1992 12.0156 20.3086C11.0391 21.8789 11.0078 21.9179 10.7344 21.9179C10.4531 21.9179 10.3438 21.7773 9.41406 20.2617C8.57812 18.8945 8.29688 18.5742 7.66406 18.2773C7.22656 18.082 7 18.0508 4.79688 17.9336C3.96094 17.8867 3.09375 17.8086 2.875 17.7695C2.35938 17.6679 1.91406 17.3398 1.64844 16.8476C1.29688 16.207 1.17188 14.3164 1.17188 9.61326C1.17188 5.33201 1.29688 3.15233 1.57812 2.51951C1.75781 2.12108 2.15625 1.73045 2.53906 1.5742C3.41406 1.20701 12.125 1.03514 16.3984 1.29295ZM35.1953 10.3086C36.8516 10.4258 37.2031 10.5195 37.6406 10.9492C38.0547 11.3633 38.1484 11.7226 38.2891 13.3008C38.4766 15.3867 38.4766 21.8086 38.2891 23.8867C38.1484 25.4648 38.0625 25.7851 37.6641 26.207C37.1641 26.7383 36.7109 26.8242 33.7812 26.957C32.2969 27.0273 31.6641 27.2304 31.1094 27.8242C31 27.9492 30.5391 28.6445 30.0859 29.3789C29.6172 30.1445 29.1875 30.7539 29.0703 30.8242C28.7188 31.0273 28.5547 30.8633 27.6562 29.3945C26.3906 27.3164 26.1016 27.1054 24.2891 26.9883C21.0938 26.7773 20.9688 26.7695 20.6328 26.6211C20.2422 26.4414 19.8438 26.0429 19.6875 25.6679C19.3516 24.8554 19.1406 18.7383 19.3281 15.2383C19.5078 11.8789 19.5938 11.4258 20.1172 10.9258C20.6328 10.4414 21.0391 10.3711 24.4062 10.1992C26.3047 10.1054 33.3359 10.1758 35.1953 10.3086Z" fill="white"/>
<path d="M5.9375 4.11328C5.36719 4.20703 4.64844 4.58984 4.19531 5.04297C2.94531 6.30859 2.91406 8.26953 4.14062 9.57422L4.48438 9.94922L4.09375 10.1992C3.03125 10.8867 2.21875 12.332 2.21875 13.5664C2.21875 13.918 2.25 14.0352 2.39844 14.168C2.57812 14.3398 2.58594 14.3398 6.52344 14.3398H10.4766L10.6406 14.1602C10.7734 14.0195 10.8125 13.8789 10.8125 13.5898C10.8125 12.3555 10 10.8789 8.9375 10.1992L8.54688 9.94922L8.90625 9.55078C10.1406 8.17578 10.0703 6.23047 8.75 4.98047C8.25 4.50391 7.66406 4.20703 7.00781 4.10547C6.5 4.01953 6.47656 4.01953 5.9375 4.11328ZM7.34375 5.39453C8.125 5.71484 8.67188 6.63672 8.60156 7.48828C8.53906 8.22266 8.17969 8.79297 7.53125 9.16797C7.22656 9.35547 7.09375 9.37891 6.51562 9.37891C5.92969 9.37891 5.80469 9.35547 5.48438 9.16797C5.00781 8.88672 4.66406 8.45703 4.52344 7.98047C4.23438 7.01172 4.53906 6.19922 5.44531 5.51172C5.84375 5.21484 6.77344 5.15234 7.34375 5.39453ZM7.60156 10.8164C8.40625 11.1211 8.99219 11.668 9.36719 12.4727C9.71875 13.2305 9.97656 13.168 6.51562 13.168C3.03125 13.168 3.30469 13.2461 3.70312 12.4023C4.10938 11.5508 4.97656 10.8633 5.89062 10.668C6.35938 10.5742 7.14844 10.6367 7.60156 10.8164Z" fill="white"/>
<path d="M13.5937 4.93359C12.6016 5.24609 11.7656 6.19922 11.7344 7.04297C11.7266 7.26953 11.7734 7.37109 11.9375 7.51953C12.0547 7.61328 12.2187 7.69922 12.2969 7.69922C12.5234 7.69922 12.8047 7.38672 12.9531 6.98047C13.4609 5.58984 15.3984 5.71484 15.8125 7.16016C15.9062 7.48047 15.75 8.09766 15.4453 8.63672C15.1875 9.08203 14 10.7617 12.9062 12.2227C12.4375 12.8477 12.0391 13.4414 12.0078 13.5508C11.9453 13.793 12.1172 14.1055 12.375 14.2383C12.5156 14.3086 13.1719 14.3398 14.7812 14.3398H16.9922L17.1797 14.1445C17.4297 13.9023 17.4375 13.5664 17.1953 13.3398C17.0234 13.1758 16.9375 13.168 15.3516 13.1523L13.6875 13.1289L14.1016 12.5898C15.9609 10.1367 16.8203 8.72266 16.9844 7.87109C17.1172 7.15234 16.8672 6.30859 16.3281 5.69141C15.7187 4.98828 14.4844 4.64453 13.5937 4.93359Z" fill="white"/>
<path d="M24.0625 12.9804C22.6875 13.3163 21.4141 14.371 20.8359 15.6601C19.3203 19.0429 22.0547 22.7851 25.7422 22.3788C26.0703 22.3398 26.4766 22.2617 26.6484 22.1992C26.9687 22.0898 26.9844 22.0898 28.2344 22.5585C29.6328 23.0898 29.8125 23.0976 30.0234 22.6601C30.125 22.4492 30.1172 22.3788 29.9609 21.957C29.8594 21.6992 29.6719 21.1913 29.5391 20.8242L29.2969 20.1601L29.5078 19.7148C29.8281 19.0507 29.9531 18.4492 29.9531 17.6367C29.9531 16.7929 29.8125 16.1601 29.4766 15.496C29.1719 14.8945 29 14.7304 28.6719 14.7304C28.4766 14.7304 28.3594 14.7851 28.2422 14.9335C28.0312 15.207 28.0312 15.3007 28.3047 15.7773C28.6797 16.4257 28.8047 16.9882 28.7656 17.8476C28.7422 18.5429 28.7109 18.6445 28.4062 19.2617C28.2266 19.6288 28.0781 20.0117 28.0781 20.1054C28.0781 20.1992 28.1641 20.5117 28.2734 20.7929C28.3828 21.082 28.4609 21.332 28.4453 21.3476C28.4219 21.3632 28.125 21.2695 27.7734 21.1367C27.0078 20.8554 26.9219 20.8554 26.3203 21.0663C25.6953 21.2851 24.6953 21.2851 24.0625 21.0585C22.4609 20.5038 21.5078 19.0742 21.6094 17.3945C21.7578 15.1288 23.9375 13.5663 26.1484 14.1445C26.75 14.3007 26.8516 14.2929 27.0469 14.082C27.2891 13.832 27.2734 13.457 27.0234 13.2538C26.5625 12.8945 25.0156 12.7538 24.0625 12.9804Z" fill="white"/>
<path d="M33.5469 13.2383C32.8281 13.457 32.1641 14.0273 31.8594 14.6758C31.5234 15.4023 31.6797 15.9805 32.2109 15.9805C32.5078 15.9805 32.7188 15.7852 32.875 15.3398C33.4453 13.7695 35.7734 14.1523 35.7734 15.8242C35.7734 16.6055 35.2578 17.1758 34.4375 17.3086C33.9219 17.3945 33.7031 17.5742 33.7031 17.9258C33.7031 18.2383 33.9453 18.4492 34.3672 18.5039C35.3359 18.6367 35.9531 19.4727 35.7344 20.3477C35.3828 21.7617 33.5234 21.9414 32.9141 20.6289C32.8359 20.457 32.7656 20.1992 32.7656 20.0586C32.7656 19.7461 32.4688 19.418 32.1797 19.418C32.0625 19.418 31.8906 19.5039 31.7734 19.6211C31.5938 19.8086 31.5781 19.8633 31.6172 20.2695C31.7188 21.1914 32.3047 22.0352 33.1484 22.4414C33.5156 22.6211 33.6953 22.6523 34.25 22.6602C34.8125 22.6602 34.9844 22.6289 35.3516 22.457C35.9609 22.168 36.3984 21.7539 36.6641 21.1836C36.9688 20.5508 37.0313 20.0352 36.8672 19.4102C36.7422 18.9102 36.4141 18.3086 36.125 18.0508C35.9688 17.9023 35.9688 17.9023 36.2344 17.6289C36.9531 16.8945 37.1484 15.707 36.7188 14.7539C36.4297 14.1211 35.8516 13.5664 35.2422 13.3398C34.7813 13.1602 33.9531 13.1133 33.5469 13.2383Z" fill="white"/>
<path d="M9.72656 23.7539C8.53125 24.3086 7.83594 25.457 7.83594 26.8711C7.83594 28.4258 8.80469 29.8633 10.8359 31.3242C11.6797 31.9258 12.3984 32.3086 12.6875 32.3086C13.2344 32.3086 15.0547 31.043 16.0859 29.9414C16.6094 29.3945 16.8359 29.0664 17.1172 28.5039C17.4375 27.8633 17.4844 27.707 17.5156 27.1445C17.5625 26.3711 17.4375 25.7852 17.1172 25.168C16.5859 24.1602 15.7969 23.6367 14.75 23.5742C14.1953 23.543 14.0547 23.5664 13.6953 23.7305C13.4609 23.8398 13.1328 24.0508 12.9688 24.2148L12.6562 24.5039L12.3438 24.1914C11.875 23.7305 11.4375 23.5586 10.7344 23.5586C10.2734 23.5586 10.0625 23.5977 9.72656 23.7539ZM11.4766 24.9727C11.8438 25.3008 11.9844 25.582 12.0703 26.168C12.1406 26.6992 12.3203 26.918 12.6797 26.918C13.0391 26.918 13.1641 26.7617 13.2734 26.1523C13.4531 25.2148 13.8984 24.7305 14.5859 24.7305C15.1016 24.7305 15.4141 24.8789 15.7891 25.3086C16.2188 25.793 16.3828 26.3086 16.3438 26.9883C16.3047 27.793 15.9531 28.418 15.0312 29.3477C14.3047 30.082 12.9688 31.0586 12.6875 31.0586C12.4219 31.0586 11.0625 30.0742 10.3281 29.3398C9.71094 28.7305 9.52344 28.4883 9.28906 27.9961C9.0625 27.5117 9 27.3008 9 26.9414C9 25.6602 9.75 24.7305 10.7812 24.7305C11.1328 24.7305 11.2422 24.7695 11.4766 24.9727Z" fill="white"/>
</svg>
