<svg width="40" height="41" viewBox="0 0 40 41" fill="none" xmlns="http://www.w3.org/2000/svg">
<path d="M18.2078 1.02349C14.3395 1.39936 10.7689 2.8245 7.63667 5.23629C6.10972 6.41086 4.12862 8.61905 2.98537 10.4201C2.49205 11.1953 1.5289 13.1686 1.18436 14.1082C0.800666 15.1575 0.385651 16.7706 0.182058 18.0156C-0.0606861 19.5426 -0.0606861 22.4398 0.182058 23.9668C0.53443 26.128 1.09039 27.8663 2.03788 29.8005C3.0715 31.9069 4.14428 33.4025 5.86698 35.133C7.59751 36.8557 9.09313 37.9285 11.1995 38.9621C13.1337 39.9096 14.872 40.4656 17.0332 40.8179C18.5602 41.0607 21.4574 41.0607 22.9844 40.8179C25.1456 40.4656 26.884 39.9096 28.8181 38.9621C30.9245 37.9285 32.4201 36.8557 34.1506 35.133C35.8733 33.4025 36.9461 31.9069 37.9797 29.8005C38.6688 28.3988 39.0134 27.4827 39.3892 26.0732C39.8825 24.1939 40 23.1681 40 20.9912C40 18.8143 39.8825 17.7885 39.3892 15.9092C39.0134 14.4997 38.6688 13.5836 37.9797 12.1819C36.9461 10.0755 35.8733 8.5799 34.1506 6.84936C32.4201 5.12666 30.9245 4.05389 28.8181 3.02026C26.8918 2.07278 25.1064 1.50898 23.0235 1.1801C21.8725 1 19.3041 0.913867 18.2078 1.02349ZM21.5436 4.24182C25.5215 4.62551 29.0452 6.2934 31.872 9.12803C34.7066 11.9548 36.3745 15.4785 36.7582 19.4564C37.1027 22.9488 36.2101 26.7622 34.3542 29.7613C33.0387 31.8912 30.9088 34.0211 28.7789 35.3366C25.7799 37.1924 21.9664 38.0851 18.474 37.7406C14.4962 37.3569 10.9724 35.689 8.14565 32.8544C5.31102 30.0276 3.64313 26.5038 3.25943 22.526C2.91489 19.0336 3.80757 15.2201 5.66339 12.2211C6.97891 10.0912 9.10879 7.96129 11.2387 6.64577C14.2378 4.78995 18.0512 3.89728 21.5436 4.24182Z" fill="white"/>
<path d="M13.9011 12.6204C11.1996 12.7927 9.97807 12.9571 9.53957 13.2077C9.06191 13.4818 8.78784 13.9907 8.78784 14.5702C8.79567 15.0792 8.92096 15.3611 9.29682 15.7213C9.77448 16.1833 10.0329 16.2068 11.8261 16.0188C13.4235 15.8544 16.8845 15.7213 18.3254 15.7839C22.7887 15.9562 25.8191 16.5278 28.9356 17.7807C29.6482 18.0626 29.8205 18.1017 30.2042 18.0782C31.5823 17.9764 32.1696 16.2851 31.1595 15.3376C30.7366 14.9461 28.6381 14.1552 26.6257 13.6305C23.1568 12.7379 18.2314 12.3463 13.9011 12.6204Z" fill="white"/>
<path d="M15.0365 18.8848C13.3294 18.9396 11.2152 19.1275 10.6906 19.2685C9.97017 19.4642 9.49251 20.075 9.50034 20.7954C9.50817 21.4767 9.79007 21.9387 10.393 22.2519C10.7454 22.432 11.0899 22.432 12.4524 22.2754C13.8932 22.1109 18.3488 22.0405 19.907 22.1579C23.0471 22.4007 25.357 22.894 27.5652 23.7945C28.5675 24.2017 29.0139 24.2408 29.5463 23.9746C30.4312 23.5204 30.6896 22.3928 30.0788 21.5941C29.8752 21.3279 29.6873 21.2026 29.053 20.9285C27.0249 20.0515 24.433 19.4094 21.5749 19.0805C20.5335 18.9553 17.6832 18.7908 17.0724 18.8143C16.9001 18.8143 15.984 18.8535 15.0365 18.8848Z" fill="white"/>
<path d="M14.1359 24.9534C12.9848 25.0396 11.2464 25.2275 10.9645 25.3058C10.4086 25.4624 9.8291 26.2376 9.8291 26.8327C9.8291 27.4279 10.3146 28.1013 10.894 28.3205C11.2308 28.4458 11.3247 28.4458 12.6324 28.3205C14.5352 28.1326 17.2446 28.0778 18.8733 28.1874C21.7392 28.391 23.6107 28.7747 25.6467 29.5812C26.7194 30.0041 27.1658 30.0432 27.6904 29.7535C27.8783 29.6517 28.1367 29.409 28.2699 29.2289C28.4735 28.9235 28.5048 28.8217 28.5048 28.3519C28.5048 27.6001 28.2542 27.2478 27.4477 26.8484C25.8424 26.0654 23.3132 25.4233 20.5568 25.0944C19.5467 24.9769 15.1851 24.883 14.1359 24.9534Z" fill="white"/>
</svg>
