<svg width="40" height="29" viewBox="0 0 40 29" fill="none" xmlns="http://www.w3.org/2000/svg">
<path d="M5.66746 0.647026C4.19204 1.03787 3.127 1.68275 2.02288 2.8455C1.42685 3.47084 1.14349 3.88122 0.801504 4.57496C-0.0388009 6.25558 0.000283089 5.80611 0.000283089 14.7173V22.5829L0.225016 23.3548C1.06532 26.2568 3.26379 28.2892 6.17555 28.8461C7.25036 29.0513 32.7038 29.0513 33.7786 28.8461C36.6904 28.2892 38.8497 26.3154 39.7389 23.3939C39.9539 22.6904 39.9539 22.622 39.993 15.2058C40.0125 10.0565 39.993 7.49649 39.9148 6.97863C39.6607 5.23939 38.9768 3.88122 37.6675 2.59145C36.9542 1.87817 36.6708 1.67298 35.8012 1.24306C35.2247 0.959698 34.4919 0.676339 34.101 0.598171C33.5246 0.480919 31.3652 0.451606 19.8843 0.461377C7.02563 0.461377 6.32212 0.471148 5.66746 0.647026ZM20.4021 11.8837C23.0207 13.4177 25.1606 14.6879 25.1606 14.7173C25.1606 14.7563 17.6955 19.1533 15.1746 20.6092L14.7056 20.873V14.7173V8.56153L15.1746 8.82535C15.4385 8.98168 17.7835 10.3496 20.4021 11.8837Z" fill="white"/>
</svg>
